<svg xmlns="http://www.w3.org/2000/svg" id="graphic" width="1035" height="597"><g id="facets"><g class="facet" transform="translate(69,10)" opacity="1"><rect class="facet-title-bg" height="0" fill="#eeeeee" x="0" y="0" clip-path="url(#facet-clip-0)"/><text class="facet-title" y="0" font-size="17.5px" font-weight="bold" dx="0" x="0" fill="#333333" clip-path="url(#facet-clip-0)" opacity="0"/><g class="plot"><clipPath class="facet-clip" id="facet-clip-0"><rect width="970" height="560" transform="translate(-7,-21)"/></clipPath><g class="bg"><rect fill="none" width="956" height="518" style="fill: none;"/></g><g class="interaction"><g class="series"/><g class="series"/><g class="series"/></g><g class="axes"><g class="y axis" fill="none" font-size="10" font-family="sans-serif" text-anchor="end" style="font-family: &quot;Source Sans Pro&quot;;"><path class="domain" stroke="#eeeeee" d="M0.5,518.5V0.5" stroke-dasharray="0" style="visibility: hidden;"/><g class="tick" opacity="1" transform="translate(0,518.5)" style="visibility: visible;"><line stroke="#eeeeee" x2="956" stroke-dasharray="0"/><text fill="rgb(153, 153, 153)" x="-3" dy="0.33em" opacity="1" text-anchor="end" font-size="12">$0</text></g><g class="tick" opacity="1" transform="translate(0,466.7)" style="visibility: visible;"><line stroke="#eeeeee" x2="956" stroke-dasharray="0"/><text fill="rgb(153, 153, 153)" x="-3" dy="0.33em" opacity="1" text-anchor="end" font-size="12">$5,000,000</text></g><g class="tick" opacity="1" transform="translate(0,414.9)" style="visibility: visible;"><line stroke="#eeeeee" x2="956" stroke-dasharray="0"/><text fill="rgb(153, 153, 153)" x="-3" dy="0.33em" opacity="1" text-anchor="end" font-size="12">$10,000,000</text></g><g class="tick" opacity="1" transform="translate(0,363.1)" style="visibility: visible;"><line stroke="#eeeeee" x2="956" stroke-dasharray="0"/><text fill="rgb(153, 153, 153)" x="-3" dy="0.33em" opacity="1" text-anchor="end" font-size="12">$15,000,000</text></g><g class="tick" opacity="1" transform="translate(0,311.29999999999995)" style="visibility: visible;"><line stroke="#eeeeee" x2="956" stroke-dasharray="0"/><text fill="rgb(153, 153, 153)" x="-3" dy="0.33em" opacity="1" text-anchor="end" font-size="12">$20,000,000</text></g><g class="tick" opacity="1" transform="translate(0,259.5)" style="visibility: visible;"><line stroke="#eeeeee" x2="956" stroke-dasharray="0"/><text fill="rgb(153, 153, 153)" x="-3" dy="0.33em" opacity="1" text-anchor="end" font-size="12">$25,000,000</text></g><g class="tick" opacity="1" transform="translate(0,207.7)" style="visibility: visible;"><line stroke="#eeeeee" x2="956" stroke-dasharray="0"/><text fill="rgb(153, 153, 153)" x="-3" dy="0.33em" opacity="1" text-anchor="end" font-size="12">$30,000,000</text></g><g class="tick" opacity="1" transform="translate(0,155.90000000000003)" style="visibility: visible;"><line stroke="#eeeeee" x2="956" stroke-dasharray="0"/><text fill="rgb(153, 153, 153)" x="-3" dy="0.33em" opacity="1" text-anchor="end" font-size="12">$35,000,000</text></g><g class="tick" opacity="1" transform="translate(0,104.09999999999997)" style="visibility: visible;"><line stroke="#eeeeee" x2="956" stroke-dasharray="0"/><text fill="rgb(153, 153, 153)" x="-3" dy="0.33em" opacity="1" text-anchor="end" font-size="12">$40,000,000</text></g><g class="tick" opacity="1" transform="translate(0,52.30000000000001)" style="visibility: visible;"><line stroke="#eeeeee" x2="956" stroke-dasharray="0"/><text fill="rgb(153, 153, 153)" x="-3" dy="0.33em" opacity="1" text-anchor="end" font-size="12">$45,000,000</text></g><g class="tick" opacity="1" transform="translate(0,0.5)" style="visibility: visible;"><line stroke="#eeeeee" x2="956" stroke-dasharray="0"/><text fill="rgb(153, 153, 153)" x="-3" dy="0.33em" opacity="1" text-anchor="end" font-size="12">$50,000,000</text></g></g><text class="y axis-label" transform="rotate(-90) translate(-259,-47)" fill="#999999" text-anchor="middle" dominant-baseline="middle" font-size="12">Revenue</text><g class="x axis" transform="translate(0,518)" fill="none" font-size="10" font-family="sans-serif" text-anchor="middle" style="font-family: &quot;Source Sans Pro&quot;;"><path class="domain" stroke="#eeeeee" d="M0.5,0.5H956.5" stroke-dasharray="0" style="visibility: hidden;"/><g class="tick" opacity="1" transform="translate(103.09803921568627,0)"><line stroke="#eeeeee" y2="-518" stroke-dasharray="0"/><text fill="rgb(153, 153, 153)" y="3" dy="-9" opacity="1" dominant-baseline="central" font-size="12" transform="translate(0, 15) rotate(-45)" dx="5" style="text-anchor: end; visibility: visible;">2013</text></g><g class="tick" opacity="1" transform="translate(290.5490196078431,0)"><line stroke="#eeeeee" y2="-518" stroke-dasharray="0"/><text fill="rgb(153, 153, 153)" y="3" dy="-9" opacity="1" dominant-baseline="central" font-size="12" transform="translate(0, 15) rotate(-45)" dx="5" style="text-anchor: end; visibility: visible;">2014</text></g><g class="tick" opacity="1" transform="translate(478,0)"><line stroke="#eeeeee" y2="-518" stroke-dasharray="0"/><text fill="rgb(153, 153, 153)" y="3" dy="-9" opacity="1" dominant-baseline="central" font-size="12" transform="translate(0, 15) rotate(-45)" dx="5" style="text-anchor: end; visibility: visible;">2015</text></g><g class="tick" opacity="1" transform="translate(665.4509803921568,0)"><line stroke="#eeeeee" y2="-518" stroke-dasharray="0"/><text fill="rgb(153, 153, 153)" y="3" dy="-9" opacity="1" dominant-baseline="central" font-size="12" transform="translate(0, 15) rotate(-45)" dx="5" style="text-anchor: end; visibility: visible;">2016</text></g><g class="tick" opacity="1" transform="translate(852.9019607843137,0)"><line stroke="#eeeeee" y2="-518" stroke-dasharray="0"/><text fill="rgb(153, 153, 153)" y="3" dy="-9" opacity="1" dominant-baseline="central" font-size="12" transform="translate(0, 15) rotate(-45)" dx="5" style="text-anchor: end; visibility: visible;">2017</text></g></g><text class="x axis-label" transform="translate(478,565)" fill="#999999" text-anchor="middle" dominant-baseline="middle" font-size="12">Year</text></g></g></g></g><g class="annotations below"><g class="axis-highlights" transform="translate(69, 10)" style="opacity: 1;"/></g><g id="areas"><g class="series" pointer-events="none"><path class="area" transform="translate(69,10)" fill-opacity="0" fill="#1D6996" clip-path="url(#clip-0-0)" d="M18.74509803921569,4.1440000000000055C81.22875816993465,55.426,143.71241830065358,106.708,206.19607843137254,129.5C268.6797385620915,152.292,331.16339869281046,152.11933333333332,393.6470588235294,163.688C456.1307189542483,175.25666666666666,518.6143790849673,175.42933333333332,581.0980392156862,198.91199999999998C643.5816993464051,222.39466666666664,706.0653594771242,263.4893333333333,768.5490196078431,304.584L768.5490196078431,304.584C706.0653594771242,263.4893333333333,643.5816993464051,222.39466666666664,581.0980392156862,198.91199999999998C518.6143790849673,175.42933333333332,456.1307189542483,175.25666666666666,393.6470588235294,163.688C331.16339869281046,152.11933333333332,268.6797385620915,152.292,206.19607843137254,129.5C143.71241830065358,106.708,81.22875816993465,55.426,18.74509803921569,4.1440000000000055Z"/></g><g class="series" pointer-events="none"><path class="area" transform="translate(69,10)" fill-opacity="0" fill="#EDAD08" clip-path="url(#clip-0-1)" d="M18.74509803921569,256.928C81.22875816993465,243.201,143.71241830065358,229.474,206.19607843137254,218.596C268.6797385620915,207.71800000000002,331.16339869281046,200.34686000000002,393.6470588235294,191.66000000000003C456.1307189542483,182.97314000000003,518.6143790849673,173.5541733333333,581.0980392156862,166.47483999999997C643.5816993464051,159.39550666666665,706.0653594771242,154.28975333333332,768.5490196078431,149.18400000000003L768.5490196078431,149.18400000000003C706.0653594771242,154.28975333333332,643.5816993464051,159.39550666666665,581.0980392156862,166.47483999999997C518.6143790849673,173.5541733333333,456.1307189542483,182.97314000000003,393.6470588235294,191.66000000000003C331.16339869281046,200.34686000000002,268.6797385620915,207.71800000000002,206.19607843137254,218.596C143.71241830065358,229.474,81.22875816993465,243.201,18.74509803921569,256.928Z"/></g><g class="series" pointer-events="none"><path class="area" transform="translate(69,10)" fill-opacity="0" fill="#73AF48" clip-path="url(#clip-0-2)" d="M18.74509803921569,211.344C81.22875816993465,258.482,143.71241830065358,305.62,206.19607843137254,305.62C268.6797385620915,305.62,331.16339869281046,300.61784666666665,393.6470588235294,298.368C456.1307189542483,296.11815333333334,518.6143790849673,294.53825333333333,581.0980392156862,292.12092C643.5816993464051,289.7035866666667,706.0653594771242,286.78379333333334,768.5490196078431,283.86400000000003L768.5490196078431,283.86400000000003C706.0653594771242,286.78379333333334,643.5816993464051,289.7035866666667,581.0980392156862,292.12092C518.6143790849673,294.53825333333333,456.1307189542483,296.11815333333334,393.6470588235294,298.368C331.16339869281046,300.61784666666665,268.6797385620915,305.62,206.19607843137254,305.62C143.71241830065358,305.62,81.22875816993465,258.482,18.74509803921569,211.344Z"/></g></g><g id="lines"><g class="series"><clipPath id="clip-0-0"><rect width="0" y="-10" height="538"/></clipPath><path class="line" opacity="1" fill="none" stroke="#1D6996" stroke-width="2" transform="translate(69,10)" clip-path="url(#clip-0-0)" d="M18.74509803921569,4.1440000000000055C81.22875816993465,55.426,143.71241830065358,106.708,206.19607843137254,129.5C268.6797385620915,152.292,331.16339869281046,152.11933333333332,393.6470588235294,163.688C456.1307189542483,175.25666666666666,518.6143790849673,175.42933333333332,581.0980392156862,198.91199999999998C643.5816993464051,222.39466666666664,706.0653594771242,263.4893333333333,768.5490196078431,304.584"/><text class="label" font-size="11" alignment-baseline="middle" opacity="0" x="5" fill="#1D6996" transform="translate(837.5490196078431,314.584)"/></g><g class="series"><clipPath id="clip-0-1"><rect width="0" y="-10" height="538"/></clipPath><path class="line" opacity="1" fill="none" stroke="#EDAD08" stroke-width="2" transform="translate(69,10)" clip-path="url(#clip-0-1)" d="M18.74509803921569,256.928C81.22875816993465,243.201,143.71241830065358,229.474,206.19607843137254,218.596C268.6797385620915,207.71800000000002,331.16339869281046,200.34686000000002,393.6470588235294,191.66000000000003C456.1307189542483,182.97314000000003,518.6143790849673,173.5541733333333,581.0980392156862,166.47483999999997C643.5816993464051,159.39550666666665,706.0653594771242,154.28975333333332,768.5490196078431,149.18400000000003"/><text class="label" font-size="11" alignment-baseline="middle" opacity="0" x="5" fill="#EDAD08" transform="translate(837.5490196078431,159.18400000000003)"/></g><g class="series"><clipPath id="clip-0-2"><rect width="0" y="-10" height="538"/></clipPath><path class="line" opacity="1" fill="none" stroke="#73AF48" stroke-width="2" transform="translate(69,10)" clip-path="url(#clip-0-2)" d="M18.74509803921569,211.344C81.22875816993465,258.482,143.71241830065358,305.62,206.19607843137254,305.62C268.6797385620915,305.62,331.16339869281046,300.61784666666665,393.6470588235294,298.368C456.1307189542483,296.11815333333334,518.6143790849673,294.53825333333333,581.0980392156862,292.12092C643.5816993464051,289.7035866666667,706.0653594771242,286.78379333333334,768.5490196078431,283.86400000000003"/><text class="label" font-size="11" alignment-baseline="middle" opacity="0" x="5" fill="#73AF48" transform="translate(837.5490196078431,293.86400000000003)"/></g></g><g id="data-points"><g class="series" transform="translate(69,10)"><path class="data-point" data-type="column" opacity="0.9" fill="#1D6996" d="M18.74509803921569,4.1440000000000055L74.98039215686273,4.1440000000000055L74.98039215686273,518L18.74509803921569,518Z" transform="translate(0, 0)" id="point-0-0"/><path class="data-point" data-type="column" opacity="0.9" fill="#1D6996" d="M206.19607843137254,129.5L262.4313725490196,129.5L262.4313725490196,518L206.19607843137254,518Z" transform="translate(0, 0)" id="point-0-1"/><path class="data-point" data-type="column" opacity="0.9" fill="#1D6996" d="M393.6470588235294,163.688L449.88235294117646,163.688L449.88235294117646,518L393.6470588235294,518Z" transform="translate(0, 0)" id="point-0-2"/><path class="data-point" data-type="column" opacity="0.9" fill="#1D6996" d="M581.0980392156862,198.91199999999998L637.3333333333333,198.91199999999998L637.3333333333333,518L581.0980392156862,518Z" transform="translate(0, 0)" id="point-0-3"/><path class="data-point" data-type="column" opacity="0.9" fill="#1D6996" d="M768.5490196078431,304.584L824.7843137254902,304.584L824.7843137254902,518L768.5490196078431,518Z" transform="translate(0, 0)" id="point-0-4"/></g><g class="series" transform="translate(69,10)"><path class="data-point" data-type="column" opacity="0.9" fill="#EDAD08" d="M74.98039215686273,256.928L131.21568627450978,256.928L131.21568627450978,518L74.98039215686273,518Z" transform="translate(0, 0)" id="point-1-0"/><path class="data-point" data-type="column" opacity="0.9" fill="#EDAD08" d="M262.4313725490196,218.596L318.6666666666667,218.596L318.6666666666667,518L262.4313725490196,518Z" transform="translate(0, 0)" id="point-1-1"/><path class="data-point" data-type="column" opacity="0.9" fill="#EDAD08" d="M449.88235294117646,191.66000000000003L506.11764705882354,191.66000000000003L506.11764705882354,518L449.88235294117646,518Z" transform="translate(0, 0)" id="point-1-2"/><path class="data-point" data-type="column" opacity="0.9" fill="#EDAD08" d="M637.3333333333333,166.47483999999997L693.5686274509803,166.47483999999997L693.5686274509803,518L637.3333333333333,518Z" transform="translate(0, 0)" id="point-1-3"/><path class="data-point" data-type="column" opacity="0.9" fill="#EDAD08" d="M824.7843137254902,149.18400000000003L881.0196078431372,149.18400000000003L881.0196078431372,518L824.7843137254902,518Z" transform="translate(0, 0)" id="point-1-4"/></g><g class="series" transform="translate(69,10)"><path class="data-point" data-type="column" opacity="0.9" fill="#73AF48" d="M131.21568627450978,211.344L187.45098039215682,211.344L187.45098039215682,518L131.21568627450978,518Z" transform="translate(0, 0)" id="point-2-0"/><path class="data-point" data-type="column" opacity="0.9" fill="#73AF48" d="M318.66666666666663,305.62L374.9019607843137,305.62L374.9019607843137,518L318.66666666666663,518Z" transform="translate(0, 0)" id="point-2-1"/><path class="data-point" data-type="column" opacity="0.9" fill="#73AF48" d="M506.1176470588235,298.368L562.3529411764705,298.368L562.3529411764705,518L506.1176470588235,518Z" transform="translate(0, 0)" id="point-2-2"/><path class="data-point" data-type="column" opacity="0.9" fill="#73AF48" d="M693.5686274509803,292.12092L749.8039215686274,292.12092L749.8039215686274,518L693.5686274509803,518Z" transform="translate(0, 0)" id="point-2-3"/><path class="data-point" data-type="column" opacity="0.9" fill="#73AF48" d="M881.0196078431372,283.86400000000003L937.2549019607843,283.86400000000003L937.2549019607843,518L881.0196078431372,518Z" transform="translate(0, 0)" id="point-2-4"/></g></g><g id="data-labels"/><g class="annotations above"><g class="axis-highlights" transform="translate(69, 10)" style="opacity: 1;"/></g></svg>